<svg height="1566" width="720" xmlns="http://www.w3.org/2000/svg">
<rect height="1566" fill="#555" width="720"></rect>
<text fill="#7f7" font-family="Courier New" font-size="12" xml:space="preserve">
<tspan x="10" y="26">└─┬ botbuilder@3.7.0 </tspan>
<tspan x="10" y="42">  ├── async@1.5.2 </tspan>
<tspan x="10" y="58">  ├─┬ base64url@1.0.6 </tspan>
<tspan x="10" y="74">  │ ├─┬ concat-stream@1.4.10 </tspan>
<tspan x="10" y="90">  │ │ ├── inherits@2.0.3 </tspan>
<tspan x="10" y="106">  │ │ ├─┬ readable-stream@1.1.14 </tspan>
<tspan x="10" y="122">  │ │ │ ├── core-util-is@1.0.2 </tspan>
<tspan x="10" y="138">  │ │ │ ├── isarray@0.0.1 </tspan>
<tspan x="10" y="154">  │ │ │ └── string_decoder@0.10.31 </tspan>
<tspan x="10" y="170">  │ │ └── typedarray@0.0.6 </tspan>
<tspan x="10" y="186">  │ └─┬ meow@2.0.0 </tspan>
<tspan x="10" y="202">  │   ├─┬ camelcase-keys@1.0.0 </tspan>
<tspan x="10" y="218">  │   │ ├── camelcase@1.2.1 </tspan>
<tspan x="10" y="234">  │   │ └── map-obj@1.0.1 </tspan>
<tspan x="10" y="250">  │   ├─┬ indent-string@1.2.2 </tspan>
<tspan x="10" y="266">  │   │ ├── get-stdin@4.0.1 </tspan>
<tspan x="10" y="282">  │   │ └─┬ repeating@1.1.3 </tspan>
<tspan x="10" y="298">  │   │   └─┬ is-finite@1.0.2 </tspan>
<tspan x="10" y="314">  │   │     └── number-is-nan@1.0.1 </tspan>
<tspan x="10" y="330">  │   ├── minimist@1.2.0 </tspan>
<tspan x="10" y="346">  │   └── object-assign@1.0.0 </tspan>
<tspan x="10" y="362">  ├─┬ chrono-node@1.3.1 </tspan>
<tspan x="10" y="378">  │ └── moment@2.18.1 </tspan>
<tspan x="10" y="394">  ├─┬ jsonwebtoken@7.3.0 </tspan>
<tspan x="10" y="410">  │ ├─┬ joi@6.10.1 </tspan>
<tspan x="10" y="426">  │ │ ├── hoek@2.16.3 </tspan>
<tspan x="10" y="442">  │ │ ├── isemail@1.2.0 </tspan>
<tspan x="10" y="458">  │ │ └── topo@1.1.0 </tspan>
<tspan x="10" y="474">  │ ├─┬ jws@3.1.4 </tspan>
<tspan x="10" y="490">  │ │ ├── base64url@2.0.0 </tspan>
<tspan x="10" y="506">  │ │ └─┬ jwa@1.1.5 </tspan>
<tspan x="10" y="522">  │ │   ├── base64url@2.0.0 </tspan>
<tspan x="10" y="538">  │ │   ├── buffer-equal-constant-time@1.0.1 </tspan>
<tspan x="10" y="554">  │ │   └─┬ ecdsa-sig-formatter@1.0.9 </tspan>
<tspan x="10" y="570">  │ │     └── base64url@2.0.0 </tspan>
<tspan x="10" y="586">  │ ├── lodash.once@4.1.1 </tspan>
<tspan x="10" y="602">  │ ├── ms@0.7.3 </tspan>
<tspan x="10" y="618">  │ └── xtend@4.0.1 </tspan>
<tspan x="10" y="634">  ├─┬ promise@7.1.1 </tspan>
<tspan x="10" y="650">  │ └── asap@2.0.5 </tspan>
<tspan x="10" y="666">  ├─┬ request@2.81.0 </tspan>
<tspan x="10" y="682">  │ ├── aws-sign2@0.6.0 </tspan>
<tspan x="10" y="698">  │ ├── aws4@1.6.0 </tspan>
<tspan x="10" y="714">  │ ├── caseless@0.12.0 </tspan>
<tspan x="10" y="730">  │ ├─┬ combined-stream@1.0.5 </tspan>
<tspan x="10" y="746">  │ │ └── delayed-stream@1.0.0 </tspan>
<tspan x="10" y="762">  │ ├── extend@3.0.0 </tspan>
<tspan x="10" y="778">  │ ├── forever-agent@0.6.1 </tspan>
<tspan x="10" y="794">  │ ├─┬ form-data@2.1.2 </tspan>
<tspan x="10" y="810">  │ │ └── asynckit@0.4.0 </tspan>
<tspan x="10" y="826">  │ ├─┬ har-validator@4.2.1 </tspan>
<tspan x="10" y="842">  │ │ ├─┬ ajv@4.11.5 </tspan>
<tspan x="10" y="858">  │ │ │ ├── co@4.6.0 </tspan>
<tspan x="10" y="874">  │ │ │ └─┬ json-stable-stringify@1.0.1 </tspan>
<tspan x="10" y="890">  │ │ │   └── jsonify@0.0.0 </tspan>
<tspan x="10" y="906">  │ │ └── har-schema@1.0.5 </tspan>
<tspan x="10" y="922">  │ ├─┬ hawk@3.1.3 </tspan>
<tspan x="10" y="938">  │ │ ├── boom@2.10.1 </tspan>
<tspan x="10" y="954">  │ │ ├── cryptiles@2.0.5 </tspan>
<tspan x="10" y="970">  │ │ └── sntp@1.0.9 </tspan>
<tspan x="10" y="986">  │ ├─┬ http-signature@1.1.1 </tspan>
<tspan x="10" y="1002">  │ │ ├── assert-plus@0.2.0 </tspan>
<tspan x="10" y="1018">  │ │ ├─┬ jsprim@1.4.0 </tspan>
<tspan x="10" y="1034">  │ │ │ ├── assert-plus@1.0.0 </tspan>
<tspan x="10" y="1050">  │ │ │ ├── extsprintf@1.0.2 </tspan>
<tspan x="10" y="1066">  │ │ │ ├── json-schema@0.2.3 </tspan>
<tspan x="10" y="1082">  │ │ │ └── verror@1.3.6 </tspan>
<tspan x="10" y="1098">  │ │ └─┬ sshpk@1.11.0 </tspan>
<tspan x="10" y="1114">  │ │   ├── asn1@0.2.3 </tspan>
<tspan x="10" y="1130">  │ │   ├── assert-plus@1.0.0 </tspan>
<tspan x="10" y="1146">  │ │   ├── bcrypt-pbkdf@1.0.1 </tspan>
<tspan x="10" y="1162">  │ │   ├─┬ dashdash@1.14.1 </tspan>
<tspan x="10" y="1178">  │ │   │ └── assert-plus@1.0.0 </tspan>
<tspan x="10" y="1194">  │ │   ├── ecc-jsbn@0.1.1 </tspan>
<tspan x="10" y="1210">  │ │   ├─┬ getpass@0.1.6 </tspan>
<tspan x="10" y="1226">  │ │   │ └── assert-plus@1.0.0 </tspan>
<tspan x="10" y="1242">  │ │   ├── jodid25519@1.0.2 </tspan>
<tspan x="10" y="1258">  │ │   ├── jsbn@0.1.1 </tspan>
<tspan x="10" y="1274">  │ │   └── tweetnacl@0.14.5 </tspan>
<tspan x="10" y="1290">  │ ├── is-typedarray@1.0.0 </tspan>
<tspan x="10" y="1306">  │ ├── isstream@0.1.2 </tspan>
<tspan x="10" y="1322">  │ ├── json-stringify-safe@5.0.1 </tspan>
<tspan x="10" y="1338">  │ ├─┬ mime-types@2.1.15 </tspan>
<tspan x="10" y="1354">  │ │ └── mime-db@1.27.0 </tspan>
<tspan x="10" y="1370">  │ ├── oauth-sign@0.8.2 </tspan>
<tspan x="10" y="1386">  │ ├── performance-now@0.2.0 </tspan>
<tspan x="10" y="1402">  │ ├── qs@6.4.0 </tspan>
<tspan x="10" y="1418">  │ ├── safe-buffer@5.0.1 </tspan>
<tspan x="10" y="1434">  │ ├── stringstream@0.0.5 </tspan>
<tspan x="10" y="1450">  │ ├─┬ tough-cookie@2.3.2 </tspan>
<tspan x="10" y="1466">  │ │ └── punycode@1.4.1 </tspan>
<tspan x="10" y="1482">  │ ├── tunnel-agent@0.6.0 </tspan>
<tspan x="10" y="1498">  │ └── uuid@3.0.1 </tspan>
<tspan x="10" y="1514">  ├── rsa-pem-from-mod-exp@0.8.4 </tspan>
<tspan x="10" y="1530">  ├── sprintf-js@1.0.3 </tspan>
<tspan x="10" y="1546">  └── url-join@1.1.0</tspan>
</text>
</svg>
